<svg width="527" height="76" viewBox="0 0 527 76" fill="none" xmlns="http://www.w3.org/2000/svg">
<path d="M20.6401 34.272C24.0961 34.272 26.9761 34.08 29.2801 33.696C31.6481 33.248 33.5041 32.576 34.8481 31.68C36.2561 30.784 37.2481 29.632 37.8241 28.224C38.4641 26.816 38.7841 25.152 38.7841 23.232H42.1441V49.44H38.7841C38.7841 47.52 38.4961 45.856 37.9201 44.448C37.4081 43.04 36.4481 41.888 35.0401 40.992C33.6961 40.032 31.8401 39.328 29.4721 38.88C27.1681 38.368 24.2241 38.112 20.6401 38.112V59.808C20.6401 61.92 20.8961 63.68 21.4081 65.088C21.9201 66.432 22.7841 67.552 24.0001 68.448C25.2801 69.28 26.9441 69.888 28.9921 70.272C31.0401 70.592 33.5681 70.752 36.5761 70.752C39.9681 70.752 42.8481 70.528 45.2161 70.08C47.5841 69.568 49.5681 68.736 51.1681 67.584C52.7681 66.432 54.0481 64.928 55.0081 63.072C55.9681 61.152 56.7681 58.784 57.4081 55.968H61.0561L59.6161 74.88H5.38826e-05V71.232C2.24005 71.168 4.03205 70.976 5.37605 70.656C6.78405 70.336 7.87205 69.792 8.64005 69.024C9.40805 68.256 9.92005 67.168 10.1761 65.76C10.4321 64.352 10.5601 62.528 10.5601 60.288V15.552C10.5601 13.312 10.4321 11.52 10.1761 10.176C9.98405 8.768 9.53605 7.68 8.83205 6.912C8.19205 6.08 7.23205 5.536 5.95205 5.28C4.67205 4.96 3.00805 4.736 0.960054 4.608V0.960001H56.4481L57.3121 17.856H53.9521C53.5681 15.296 52.9281 13.216 52.0321 11.616C51.2001 9.952 50.0161 8.64 48.4801 7.68C47.0081 6.72 45.1201 6.048 42.8161 5.664C40.5121 5.28 37.7281 5.088 34.4641 5.088H22.2721C21.1841 5.088 20.6401 5.632 20.6401 6.72V34.272ZM143.192 74.88H81.1763V71.232C83.4163 71.168 85.2083 70.976 86.5523 70.656C87.9603 70.336 89.0483 69.792 89.8163 69.024C90.5843 68.256 91.0963 67.168 91.3523 65.76C91.6083 64.352 91.7363 62.528 91.7363 60.288V15.552C91.7363 13.312 91.6083 11.52 91.3523 10.176C91.1603 8.768 90.7123 7.68 90.0083 6.912C89.3683 6.08 88.4083 5.536 87.1283 5.28C85.8483 4.96 84.1843 4.736 82.1363 4.608V0.960001H111.32V4.608C109.272 4.672 107.608 4.864 106.328 5.184C105.112 5.504 104.152 6.08 103.448 6.912C102.808 7.744 102.36 8.896 102.104 10.368C101.912 11.84 101.816 13.792 101.816 16.224V57.6C101.816 60.288 102.072 62.496 102.584 64.224C103.16 65.888 104.088 67.2 105.368 68.16C106.712 69.056 108.472 69.696 110.648 70.08C112.824 70.4 115.576 70.56 118.904 70.56C122.552 70.56 125.624 70.368 128.12 69.984C130.616 69.536 132.696 68.8 134.36 67.776C136.088 66.688 137.432 65.216 138.392 63.36C139.416 61.44 140.28 58.976 140.984 55.968H144.632L143.192 74.88ZM210.926 57.696L235.886 0.960001H257.39V4.608C255.342 4.672 253.678 4.928 252.398 5.376C251.182 5.824 250.222 6.592 249.518 7.68C248.878 8.704 248.43 10.144 248.174 12C247.982 13.856 247.886 16.224 247.886 19.104V56.736C247.886 59.936 248.014 62.464 248.27 64.32C248.526 66.176 249.006 67.616 249.71 68.64C250.478 69.664 251.534 70.336 252.878 70.656C254.286 70.976 256.11 71.168 258.35 71.232V74.88H227.246V71.232C229.486 71.168 231.278 70.976 232.622 70.656C234.03 70.272 235.118 69.6 235.886 68.64C236.654 67.68 237.166 66.336 237.422 64.608C237.678 62.816 237.806 60.416 237.806 57.408V12.864H236.846L208.814 75.84H206.702L179.15 12.864H178.766V56.736C178.766 59.936 178.894 62.464 179.15 64.32C179.406 66.176 179.886 67.616 180.59 68.64C181.358 69.664 182.414 70.336 183.758 70.656C185.166 70.976 186.99 71.168 189.23 71.232V74.88H162.446V71.232C164.686 71.168 166.478 70.976 167.822 70.656C169.23 70.272 170.318 69.6 171.086 68.64C171.854 67.68 172.366 66.336 172.622 64.608C172.878 62.816 173.006 60.416 173.006 57.408V18.432C173.006 15.744 172.878 13.536 172.622 11.808C172.43 10.016 171.982 8.608 171.278 7.584C170.638 6.56 169.678 5.856 168.398 5.472C167.118 5.024 165.454 4.736 163.406 4.608V0.960001H186.35L210.542 57.696H210.926ZM318.367 1.90735e-06C323.999 1.90735e-06 329.247 0.992002 334.111 2.976C338.975 4.96 343.199 7.68 346.783 11.136C350.367 14.592 353.183 18.656 355.231 23.328C357.279 28 358.303 33.056 358.303 38.496C358.303 43.68 357.247 48.544 355.135 53.088C353.087 57.632 350.271 61.6 346.687 64.992C343.103 68.32 338.879 70.976 334.015 72.96C329.151 74.88 323.935 75.84 318.367 75.84C312.799 75.84 307.583 74.88 302.719 72.96C297.855 70.976 293.631 68.32 290.047 64.992C286.463 61.6 283.615 57.632 281.503 53.088C279.455 48.544 278.431 43.68 278.431 38.496C278.431 33.056 279.455 28 281.503 23.328C283.551 18.656 286.367 14.592 289.951 11.136C293.535 7.68 297.759 4.96 302.623 2.976C307.487 0.992002 312.735 1.90735e-06 318.367 1.90735e-06ZM318.367 70.56C322.591 70.56 326.367 69.824 329.695 68.352C333.087 66.88 335.967 64.768 338.335 62.016C340.767 59.264 342.623 55.936 343.903 52.032C345.183 48.064 345.823 43.648 345.823 38.784C345.823 33.664 345.183 29.056 343.903 24.96C342.623 20.8 340.799 17.28 338.431 14.4C336.063 11.456 333.183 9.216 329.791 7.68C326.399 6.08 322.591 5.28 318.367 5.28C314.143 5.28 310.335 6.08 306.943 7.68C303.551 9.216 300.671 11.456 298.303 14.4C295.935 17.28 294.111 20.8 292.831 24.96C291.551 29.056 290.911 33.664 290.911 38.784C290.911 43.648 291.551 48.064 292.831 52.032C294.111 55.936 295.935 59.264 298.303 62.016C300.671 64.768 303.551 66.88 306.943 68.352C310.335 69.824 314.143 70.56 318.367 70.56ZM437.272 19.488C437.272 24.608 435.736 28.864 432.664 32.256C429.592 35.648 424.696 37.92 417.976 39.072L439.192 64.608C440.92 66.72 442.808 68.256 444.856 69.216C446.968 70.112 449.464 70.784 452.344 71.232V74.88H433.816L410.296 44.736C409.464 43.648 408.664 42.784 407.896 42.144C407.192 41.504 406.424 41.024 405.592 40.704C404.824 40.32 403.896 40.096 402.808 40.032C401.784 39.904 400.536 39.84 399.064 39.84V59.808C399.064 62.176 399.192 64.128 399.448 65.664C399.768 67.136 400.376 68.288 401.272 69.12C402.232 69.952 403.576 70.528 405.304 70.848C407.096 71.104 409.432 71.232 412.312 71.232V74.88H378.424V71.232C380.664 71.168 382.456 70.976 383.8 70.656C385.208 70.336 386.296 69.792 387.064 69.024C387.832 68.256 388.344 67.168 388.6 65.76C388.856 64.352 388.984 62.528 388.984 60.288V15.552C388.984 13.312 388.856 11.52 388.6 10.176C388.408 8.768 387.96 7.68 387.256 6.912C386.616 6.08 385.656 5.536 384.376 5.28C383.096 4.96 381.432 4.736 379.384 4.608V0.960001H409.528C418.36 0.960001 425.176 2.592 429.976 5.856C434.84 9.12 437.272 13.664 437.272 19.488ZM399.064 35.04H405.88C412.28 35.04 417.016 33.888 420.088 31.584C423.224 29.216 424.792 25.344 424.792 19.968C424.792 14.784 423.544 11.072 421.048 8.832C418.616 6.592 414.776 5.472 409.528 5.472H400.696C399.608 5.472 399.064 6.016 399.064 7.104V35.04ZM486.24 34.272C489.696 34.272 492.576 34.08 494.88 33.696C497.248 33.248 499.104 32.576 500.448 31.68C501.856 30.784 502.848 29.632 503.424 28.224C504.064 26.816 504.384 25.152 504.384 23.232H507.744V49.44H504.384C504.384 47.52 504.096 45.856 503.52 44.448C503.008 43.04 502.048 41.888 500.64 40.992C499.296 40.032 497.44 39.328 495.072 38.88C492.768 38.368 489.824 38.112 486.24 38.112V59.808C486.24 61.92 486.496 63.68 487.008 65.088C487.52 66.432 488.384 67.552 489.6 68.448C490.88 69.28 492.544 69.888 494.592 70.272C496.64 70.592 499.168 70.752 502.176 70.752C505.568 70.752 508.448 70.528 510.816 70.08C513.184 69.568 515.168 68.736 516.768 67.584C518.368 66.432 519.648 64.928 520.608 63.072C521.568 61.152 522.368 58.784 523.008 55.968H526.656L525.216 74.88H465.6V71.232C467.84 71.168 469.632 70.976 470.976 70.656C472.384 70.336 473.472 69.792 474.24 69.024C475.008 68.256 475.52 67.168 475.776 65.76C476.032 64.352 476.16 62.528 476.16 60.288V15.552C476.16 13.312 476.032 11.52 475.776 10.176C475.584 8.768 475.136 7.68 474.432 6.912C473.792 6.08 472.832 5.536 471.552 5.28C470.272 4.96 468.608 4.736 466.56 4.608V0.960001H522.048L522.912 17.856H519.552C519.168 15.296 518.528 13.216 517.632 11.616C516.8 9.952 515.616 8.64 514.08 7.68C512.608 6.72 510.72 6.048 508.416 5.664C506.112 5.28 503.328 5.088 500.064 5.088H487.872C486.784 5.088 486.24 5.632 486.24 6.72V34.272Z" fill="black"/>
</svg>
